# xmcd
#
# Track frame offsets:
# 150
# 13665
# 28509
# 44757
# 60804
# 75084
# 88536
# 104247
# 116992
# 130900
# 145955
# 164223
# 183465
# 202569
# 213481
# 228322
# 246527
#
# Disc length: 3470 seconds
#
#
# Revision: 1
# Processed by: cddbd v1.5.2PL0 Copyright (c) Steve Scherf et al.
# Submitted via: FreeRIP 2.944 
#
DISCID=ef0d8c11
DTITLE=Renascença Clube - Samba do Trabalhador
DYEAR=1900
DGENRE=Latin
TTITLE0=Luiz Carlos da Vila - O Sonho Não Acabou
TTITLE1=Toninho Geraes - Amor e Festança
TTITLE2=Elson - Brilha Pra Mim
TTITLE3=Bira da Vila - Ô Daqui, Ô Dalí e o de Lá
TTITLE4=Bandeira Brasil - Lágrimas de Fogo
TTITLE5=Zé Luiz - Minha arte de Amar
TTITLE6=Wanderley Monteiro - Somos Nós
TTITLE7=Marquinho Santanna - Mil Réis
TTITLE8=Luiza Dionisio - Conceição da Praia
TTITLE9=Luciano Macedo - Canto dos Cafezais
TTITLE10=Renato Milagres - Pintura Sem Arte
TTITLE11=Adilson Bispo - Retrato Cantado de Um Amor
TTITLE12=Riko Dorileo - País da Percussão
TTITLE13=Gabriel Cavalcante - Nome Sagrado
TTITLE14=Wandinho - Ladeira de Mangueira
TTITLE15=Pedrinho da Flor - Menor Abandonado
TTITLE16=Cabô, Meu Pai
EXTD=
EXTT0=
EXTT1=
EXTT2=
EXTT3=
EXTT4=
EXTT5=
EXTT6=
EXTT7=
EXTT8=
EXTT9=
EXTT10=
EXTT11=
EXTT12=
EXTT13=
EXTT14=
EXTT15=
EXTT16=
PLAYORDER=
